<mxfile host="65bd71144e">
    <diagram id="72Uv0BMuDIGKp2RJv5wu" name="Page-1">
        <mxGraphModel dx="1897" dy="2357" grid="1" gridSize="10" guides="1" tooltips="1" connect="1" arrows="1" fold="1" page="1" pageScale="1" pageWidth="827" pageHeight="1169" math="0" shadow="0">
            <root>
                <mxCell id="0"/>
                <mxCell id="1" parent="0"/>
                <mxCell id="13" value="Game" style="swimlane;fontStyle=1;align=center;verticalAlign=top;childLayout=stackLayout;horizontal=1;startSize=26;horizontalStack=0;resizeParent=1;resizeParentMax=0;resizeLast=0;collapsible=1;marginBottom=0;" vertex="1" parent="1">
                    <mxGeometry x="-310" y="-930" width="350" height="620" as="geometry"/>
                </mxCell>
                <mxCell id="14" value="+ gameId: int" style="text;strokeColor=none;fillColor=none;align=left;verticalAlign=top;spacingLeft=4;spacingRight=4;overflow=hidden;rotatable=0;points=[[0,0.5],[1,0.5]];portConstraint=eastwest;" vertex="1" parent="13">
                    <mxGeometry y="26" width="350" height="26" as="geometry"/>
                </mxCell>
                <mxCell id="24" value="" style="line;strokeWidth=1;fillColor=none;align=left;verticalAlign=middle;spacingTop=-1;spacingLeft=3;spacingRight=3;rotatable=0;labelPosition=right;points=[];portConstraint=eastwest;strokeColor=inherit;" vertex="1" parent="13">
                    <mxGeometry y="52" width="350" height="8" as="geometry"/>
                </mxCell>
                <mxCell id="176" value="+ initChat() : void " style="text;strokeColor=none;fillColor=none;align=left;verticalAlign=top;spacingLeft=4;spacingRight=4;overflow=hidden;rotatable=0;points=[[0,0.5],[1,0.5]];portConstraint=eastwest;" vertex="1" parent="13">
                    <mxGeometry y="60" width="350" height="26" as="geometry"/>
                </mxCell>
                <mxCell id="179" value="+ setChatSpiritism(chaman: Player, deadPlayer: Player): void" style="text;strokeColor=none;fillColor=none;align=left;verticalAlign=top;spacingLeft=4;spacingRight=4;overflow=hidden;rotatable=0;points=[[0,0.5],[1,0.5]];portConstraint=eastwest;" vertex="1" parent="13">
                    <mxGeometry y="86" width="350" height="26" as="geometry"/>
                </mxCell>
                <mxCell id="188" value="+ addPlayer(player: Player): void" style="text;strokeColor=none;fillColor=none;align=left;verticalAlign=top;spacingLeft=4;spacingRight=4;overflow=hidden;rotatable=0;points=[[0,0.5],[1,0.5]];portConstraint=eastwest;" vertex="1" parent="13">
                    <mxGeometry y="112" width="350" height="26" as="geometry"/>
                </mxCell>
                <mxCell id="178" value="+ removePlayer(username: string): void" style="text;strokeColor=none;fillColor=none;align=left;verticalAlign=top;spacingLeft=4;spacingRight=4;overflow=hidden;rotatable=0;points=[[0,0.5],[1,0.5]];portConstraint=eastwest;" vertex="1" parent="13">
                    <mxGeometry y="138" width="350" height="26" as="geometry"/>
                </mxCell>
                <mxCell id="180" value="+ isUserPlaying(user: User): boolean" style="text;strokeColor=none;fillColor=none;align=left;verticalAlign=top;spacingLeft=4;spacingRight=4;overflow=hidden;rotatable=0;points=[[0,0.5],[1,0.5]];portConstraint=eastwest;" vertex="1" parent="13">
                    <mxGeometry y="164" width="350" height="26" as="geometry"/>
                </mxCell>
                <mxCell id="187" value="+ getHost()" style="text;strokeColor=none;fillColor=none;align=left;verticalAlign=top;spacingLeft=4;spacingRight=4;overflow=hidden;rotatable=0;points=[[0,0.5],[1,0.5]];portConstraint=eastwest;" vertex="1" parent="13">
                    <mxGeometry y="190" width="350" height="26" as="geometry"/>
                </mxCell>
                <mxCell id="185" value="+ delete(): void" style="text;strokeColor=none;fillColor=none;align=left;verticalAlign=top;spacingLeft=4;spacingRight=4;overflow=hidden;rotatable=0;points=[[0,0.5],[1,0.5]];portConstraint=eastwest;" vertex="1" parent="13">
                    <mxGeometry y="216" width="350" height="26" as="geometry"/>
                </mxCell>
                <mxCell id="189" value="+ private setupRoles(): void&#10;&#10;" style="text;strokeColor=none;fillColor=none;align=left;verticalAlign=top;spacingLeft=4;spacingRight=4;overflow=hidden;rotatable=0;points=[[0,0.5],[1,0.5]];portConstraint=eastwest;" vertex="1" parent="13">
                    <mxGeometry y="242" width="350" height="26" as="geometry"/>
                </mxCell>
                <mxCell id="191" value="+ private setupPower(): void " style="text;strokeColor=none;fillColor=none;align=left;verticalAlign=top;spacingLeft=4;spacingRight=4;overflow=hidden;rotatable=0;points=[[0,0.5],[1,0.5]];portConstraint=eastwest;" vertex="1" parent="13">
                    <mxGeometry y="268" width="350" height="26" as="geometry"/>
                </mxCell>
                <mxCell id="190" value="+ verifyEndGame(): boolean" style="text;strokeColor=none;fillColor=none;align=left;verticalAlign=top;spacingLeft=4;spacingRight=4;overflow=hidden;rotatable=0;points=[[0,0.5],[1,0.5]];portConstraint=eastwest;" vertex="1" parent="13">
                    <mxGeometry y="294" width="350" height="26" as="geometry"/>
                </mxCell>
                <mxCell id="193" value="+ applyPowers():void" style="text;strokeColor=none;fillColor=none;align=left;verticalAlign=top;spacingLeft=4;spacingRight=4;overflow=hidden;rotatable=0;points=[[0,0.5],[1,0.5]];portConstraint=eastwest;" vertex="1" parent="13">
                    <mxGeometry y="320" width="350" height="26" as="geometry"/>
                </mxCell>
                <mxCell id="192" value="+ executionResultVote():void" style="text;strokeColor=none;fillColor=none;align=left;verticalAlign=top;spacingLeft=4;spacingRight=4;overflow=hidden;rotatable=0;points=[[0,0.5],[1,0.5]];portConstraint=eastwest;" vertex="1" parent="13">
                    <mxGeometry y="346" width="350" height="26" as="geometry"/>
                </mxCell>
                <mxCell id="196" value="+ private resetPowers(): void" style="text;strokeColor=none;fillColor=none;align=left;verticalAlign=top;spacingLeft=4;spacingRight=4;overflow=hidden;rotatable=0;points=[[0,0.5],[1,0.5]];portConstraint=eastwest;" vertex="1" parent="13">
                    <mxGeometry y="372" width="350" height="26" as="geometry"/>
                </mxCell>
                <mxCell id="194" value="+ private getPlayerWithPower(power: string) : Player | void&#10;" style="text;strokeColor=none;fillColor=none;align=left;verticalAlign=top;spacingLeft=4;spacingRight=4;overflow=hidden;rotatable=0;points=[[0,0.5],[1,0.5]];portConstraint=eastwest;" vertex="1" parent="13">
                    <mxGeometry y="398" width="350" height="26" as="geometry"/>
                </mxCell>
                <mxCell id="195" value="+ startDay(): void" style="text;strokeColor=none;fillColor=none;align=left;verticalAlign=top;spacingLeft=4;spacingRight=4;overflow=hidden;rotatable=0;points=[[0,0.5],[1,0.5]];portConstraint=eastwest;" vertex="1" parent="13">
                    <mxGeometry y="424" width="350" height="26" as="geometry"/>
                </mxCell>
                <mxCell id="197" value="+ startNight() : void" style="text;strokeColor=none;fillColor=none;align=left;verticalAlign=top;spacingLeft=4;spacingRight=4;overflow=hidden;rotatable=0;points=[[0,0.5],[1,0.5]];portConstraint=eastwest;" vertex="1" parent="13">
                    <mxGeometry y="450" width="350" height="26" as="geometry"/>
                </mxCell>
                <mxCell id="198" value="+ initGame(): void" style="text;strokeColor=none;fillColor=none;align=left;verticalAlign=top;spacingLeft=4;spacingRight=4;overflow=hidden;rotatable=0;points=[[0,0.5],[1,0.5]];portConstraint=eastwest;" vertex="1" parent="13">
                    <mxGeometry y="476" width="350" height="24" as="geometry"/>
                </mxCell>
                <mxCell id="186" value="+ initGame(): void" style="text;strokeColor=none;fillColor=none;align=left;verticalAlign=top;spacingLeft=4;spacingRight=4;overflow=hidden;rotatable=0;points=[[0,0.5],[1,0.5]];portConstraint=eastwest;" vertex="1" parent="13">
                    <mxGeometry y="500" width="350" height="24" as="geometry"/>
                </mxCell>
                <mxCell id="199" value="+ getStatus():Status" style="text;strokeColor=none;fillColor=none;align=left;verticalAlign=top;spacingLeft=4;spacingRight=4;overflow=hidden;rotatable=0;points=[[0,0.5],[1,0.5]];portConstraint=eastwest;" vertex="1" parent="13">
                    <mxGeometry y="524" width="350" height="24" as="geometry"/>
                </mxCell>
                <mxCell id="201" value="+ static load(gameId: number): Game" style="text;strokeColor=none;fillColor=none;align=left;verticalAlign=top;spacingLeft=4;spacingRight=4;overflow=hidden;rotatable=0;points=[[0,0.5],[1,0.5]];portConstraint=eastwest;" vertex="1" parent="13">
                    <mxGeometry y="548" width="350" height="24" as="geometry"/>
                </mxCell>
                <mxCell id="202" value="+ loadAllGame():void" style="text;strokeColor=none;fillColor=none;align=left;verticalAlign=top;spacingLeft=4;spacingRight=4;overflow=hidden;rotatable=0;points=[[0,0.5],[1,0.5]];portConstraint=eastwest;" vertex="1" parent="13">
                    <mxGeometry y="572" width="350" height="24" as="geometry"/>
                </mxCell>
                <mxCell id="200" value="+ schema():void" style="text;strokeColor=none;fillColor=none;align=left;verticalAlign=top;spacingLeft=4;spacingRight=4;overflow=hidden;rotatable=0;points=[[0,0.5],[1,0.5]];portConstraint=eastwest;" vertex="1" parent="13">
                    <mxGeometry y="596" width="350" height="24" as="geometry"/>
                </mxCell>
                <mxCell id="118" value="GameParam" style="swimlane;fontStyle=0;align=center;verticalAlign=top;childLayout=stackLayout;horizontal=1;startSize=18;horizontalStack=0;resizeParent=1;resizeParentMax=0;resizeLast=0;collapsible=0;marginBottom=0;html=1;strokeColor=default;" vertex="1" parent="1">
                    <mxGeometry x="-650" y="-1150" width="260" height="220" as="geometry"/>
                </mxCell>
                <mxCell id="119" value="&lt;div style=&quot;font-family: Menlo, Monaco, &amp;quot;Courier New&amp;quot;, monospace; line-height: 18px;&quot;&gt;&lt;p style=&quot;&quot;&gt;&lt;span style=&quot;color: rgb(255, 255, 255);&quot;&gt;+ nbPlayerMin: number;&lt;/span&gt;&lt;br style=&quot;color: rgb(255, 255, 255);&quot;&gt;&lt;span style=&quot;color: rgb(255, 255, 255);&quot;&gt;+ nbPlayerMax: number;&lt;/span&gt;&lt;br style=&quot;color: rgb(255, 255, 255);&quot;&gt;&lt;span style=&quot;color: rgb(255, 255, 255);&quot;&gt;+ dayLength: number;&lt;/span&gt;&lt;br style=&quot;color: rgb(255, 255, 255);&quot;&gt;&lt;span style=&quot;color: rgb(255, 255, 255);&quot;&gt;+ nightLength: number;&lt;/span&gt;&lt;br style=&quot;color: rgb(255, 255, 255);&quot;&gt;&lt;span style=&quot;color: rgb(255, 255, 255);&quot;&gt;+ startDate: number;&lt;/span&gt;&lt;br style=&quot;color: rgb(255, 255, 255);&quot;&gt;&lt;span style=&quot;color: rgb(255, 255, 255);&quot;&gt;+ percentageWerewolf: number;&lt;/span&gt;&lt;br style=&quot;color: rgb(255, 255, 255);&quot;&gt;&lt;span style=&quot;color: rgb(255, 255, 255);&quot;&gt;+ probaContamination: number;&lt;/span&gt;&lt;br style=&quot;color: rgb(255, 255, 255);&quot;&gt;&lt;span style=&quot;color: rgb(255, 255, 255);&quot;&gt;+ probaInsomnie: number;&lt;/span&gt;&lt;br style=&quot;color: rgb(255, 255, 255);&quot;&gt;&lt;span style=&quot;color: rgb(255, 255, 255);&quot;&gt;+ probaVoyance: number;&lt;/span&gt;&lt;br style=&quot;color: rgb(255, 255, 255);&quot;&gt;&lt;span style=&quot;color: rgb(255, 255, 255);&quot;&gt;+ probaSpiritisme: number;&lt;/span&gt;&lt;br&gt;&lt;/p&gt;&lt;/div&gt;" style="text;html=1;strokeColor=none;fillColor=none;align=left;verticalAlign=middle;spacingLeft=4;spacingRight=4;overflow=hidden;rotatable=0;points=[[0,0.5],[1,0.5]];portConstraint=eastwest;" vertex="1" parent="118">
                    <mxGeometry y="18" width="260" height="202" as="geometry"/>
                </mxCell>
                <mxCell id="127" value="" style="endArrow=none;html=1;entryX=0.766;entryY=1.01;entryDx=0;entryDy=0;entryPerimeter=0;exitX=0;exitY=0;exitDx=0;exitDy=0;endFill=0;" edge="1" parent="1" source="13" target="119">
                    <mxGeometry relative="1" as="geometry">
                        <mxPoint x="-390" y="-900" as="sourcePoint"/>
                        <mxPoint x="-300" y="-905" as="targetPoint"/>
                    </mxGeometry>
                </mxCell>
                <mxCell id="128" value="A pour parametre" style="edgeLabel;resizable=0;html=1;align=center;verticalAlign=middle;" connectable="0" vertex="1" parent="127">
                    <mxGeometry relative="1" as="geometry">
                        <mxPoint x="11" y="9" as="offset"/>
                    </mxGeometry>
                </mxCell>
                <mxCell id="129" value="1" style="edgeLabel;resizable=0;html=1;align=left;verticalAlign=bottom;" connectable="0" vertex="1" parent="127">
                    <mxGeometry x="-1" relative="1" as="geometry">
                        <mxPoint x="7" y="16" as="offset"/>
                    </mxGeometry>
                </mxCell>
                <mxCell id="130" value="&lt;font style=&quot;font-size: 16px;&quot;&gt;*&lt;/font&gt;" style="edgeLabel;resizable=0;html=1;align=right;verticalAlign=bottom;" connectable="0" vertex="1" parent="127">
                    <mxGeometry x="1" relative="1" as="geometry">
                        <mxPoint x="-7" y="24" as="offset"/>
                    </mxGeometry>
                </mxCell>
                <mxCell id="136" value="1" style="text;html=1;align=center;verticalAlign=middle;resizable=0;points=[];autosize=1;strokeColor=none;fillColor=none;fontSize=12;fontFamily=Helvetica;fontColor=#FFFFFF;" vertex="1" parent="1">
                    <mxGeometry x="-327.01" y="-957.5" width="30" height="30" as="geometry"/>
                </mxCell>
                <mxCell id="139" value="User" style="swimlane;fontStyle=1;align=center;verticalAlign=top;childLayout=stackLayout;horizontal=1;startSize=26;horizontalStack=0;resizeParent=1;resizeParentMax=0;resizeLast=0;collapsible=1;marginBottom=0;" vertex="1" parent="1">
                    <mxGeometry x="-810" y="-623" width="340" height="222" as="geometry"/>
                </mxCell>
                <mxCell id="140" value="+ username : string&#10;+ messageEnattente : Array&lt;String&gt;&#10;+ ws : webSocket " style="text;strokeColor=none;fillColor=none;align=left;verticalAlign=top;spacingLeft=4;spacingRight=4;overflow=hidden;rotatable=0;points=[[0,0.5],[1,0.5]];portConstraint=eastwest;" vertex="1" parent="139">
                    <mxGeometry y="26" width="340" height="44" as="geometry"/>
                </mxCell>
                <mxCell id="141" value="" style="line;strokeWidth=1;fillColor=none;align=left;verticalAlign=middle;spacingTop=-1;spacingLeft=3;spacingRight=3;rotatable=0;labelPosition=right;points=[];portConstraint=eastwest;strokeColor=inherit;" vertex="1" parent="139">
                    <mxGeometry y="70" width="340" height="8" as="geometry"/>
                </mxCell>
                <mxCell id="394" value="+ static async load(username: string): Promise&lt;User&gt; &#10;" style="text;strokeColor=none;fillColor=none;align=left;verticalAlign=top;spacingLeft=4;spacingRight=4;overflow=hidden;rotatable=0;points=[[0,0.5],[1,0.5]];portConstraint=eastwest;" vertex="1" parent="139">
                    <mxGeometry y="78" width="340" height="24" as="geometry"/>
                </mxCell>
                <mxCell id="395" value="+ static getUser(username: string): User" style="text;strokeColor=none;fillColor=none;align=left;verticalAlign=top;spacingLeft=4;spacingRight=4;overflow=hidden;rotatable=0;points=[[0,0.5],[1,0.5]];portConstraint=eastwest;" vertex="1" parent="139">
                    <mxGeometry y="102" width="340" height="24" as="geometry"/>
                </mxCell>
                <mxCell id="392" value="+ isConnected(): boolean" style="text;strokeColor=none;fillColor=none;align=left;verticalAlign=top;spacingLeft=4;spacingRight=4;overflow=hidden;rotatable=0;points=[[0,0.5],[1,0.5]];portConstraint=eastwest;" vertex="1" parent="139">
                    <mxGeometry y="126" width="340" height="24" as="geometry"/>
                </mxCell>
                <mxCell id="398" value="+ sendWaitingMessages(): void" style="text;strokeColor=none;fillColor=none;align=left;verticalAlign=top;spacingLeft=4;spacingRight=4;overflow=hidden;rotatable=0;points=[[0,0.5],[1,0.5]];portConstraint=eastwest;" vertex="1" parent="139">
                    <mxGeometry y="150" width="340" height="24" as="geometry"/>
                </mxCell>
                <mxCell id="396" value="+ sendMessage(jsonMessage: Record&lt;string, any&gt;): void" style="text;strokeColor=none;fillColor=none;align=left;verticalAlign=top;spacingLeft=4;spacingRight=4;overflow=hidden;rotatable=0;points=[[0,0.5],[1,0.5]];portConstraint=eastwest;" vertex="1" parent="139">
                    <mxGeometry y="174" width="340" height="24" as="geometry"/>
                </mxCell>
                <mxCell id="399" value="+ static async schema (): Promise&lt;void&gt;" style="text;strokeColor=none;fillColor=none;align=left;verticalAlign=top;spacingLeft=4;spacingRight=4;overflow=hidden;rotatable=0;points=[[0,0.5],[1,0.5]];portConstraint=eastwest;" vertex="1" parent="139">
                    <mxGeometry y="198" width="340" height="24" as="geometry"/>
                </mxCell>
                <mxCell id="142" style="edgeStyle=none;html=1;exitX=1;exitY=0.5;exitDx=0;exitDy=0;entryX=0;entryY=0.5;entryDx=0;entryDy=0;fontFamily=Helvetica;fontSize=12;fontColor=#FFFFFF;endArrow=none;endFill=0;" edge="1" parent="1" source="140" target="192">
                    <mxGeometry relative="1" as="geometry"/>
                </mxCell>
                <mxCell id="144" value="est créé par" style="edgeLabel;html=1;align=center;verticalAlign=middle;resizable=0;points=[];fontSize=12;fontFamily=Helvetica;fontColor=#FFFFFF;" vertex="1" connectable="0" parent="142">
                    <mxGeometry x="-0.1014" y="3" relative="1" as="geometry">
                        <mxPoint x="8" y="-21" as="offset"/>
                    </mxGeometry>
                </mxCell>
                <mxCell id="145" style="edgeStyle=none;html=1;exitX=1;exitY=0.5;exitDx=0;exitDy=0;startArrow=diamondThin;startFill=1;startSize=18;endArrow=none;endFill=0;" edge="1" parent="1" target="147" source="14">
                    <mxGeometry relative="1" as="geometry">
                        <mxPoint x="-89.53999999999996" y="-915.22" as="sourcePoint"/>
                        <mxPoint x="320.00000000000045" y="-910.788" as="targetPoint"/>
                    </mxGeometry>
                </mxCell>
                <mxCell id="146" value="&lt;span style=&quot;font-size: 12px; background-color: rgb(42, 37, 47);&quot;&gt;Channel Discution&lt;/span&gt;" style="edgeLabel;html=1;align=center;verticalAlign=middle;resizable=0;points=[];" vertex="1" connectable="0" parent="145">
                    <mxGeometry x="0.2865" y="-3" relative="1" as="geometry">
                        <mxPoint x="-29" y="-5" as="offset"/>
                    </mxGeometry>
                </mxCell>
                <mxCell id="147" value="&lt;b&gt;Chat&lt;/b&gt;" style="swimlane;fontStyle=0;align=center;verticalAlign=top;childLayout=stackLayout;horizontal=1;startSize=30;horizontalStack=0;resizeParent=1;resizeParentMax=0;resizeLast=0;collapsible=0;marginBottom=0;html=1;" vertex="1" parent="1">
                    <mxGeometry x="210" y="-1010" width="310" height="168" as="geometry"/>
                </mxCell>
                <mxCell id="149" value="" style="line;strokeWidth=1;fillColor=none;align=left;verticalAlign=middle;spacingTop=-1;spacingLeft=3;spacingRight=3;rotatable=0;labelPosition=right;points=[];portConstraint=eastwest;" vertex="1" parent="147">
                    <mxGeometry y="30" width="310" height="8" as="geometry"/>
                </mxCell>
                <mxCell id="270" value="+ hasMember(player: Player): boolean" style="text;strokeColor=none;fillColor=none;align=left;verticalAlign=top;spacingLeft=4;spacingRight=4;overflow=hidden;rotatable=0;points=[[0,0.5],[1,0.5]];portConstraint=eastwest;" vertex="1" parent="147">
                    <mxGeometry y="38" width="310" height="26" as="geometry"/>
                </mxCell>
                <mxCell id="271" value="+ resetMessages(): void" style="text;strokeColor=none;fillColor=none;align=left;verticalAlign=top;spacingLeft=4;spacingRight=4;overflow=hidden;rotatable=0;points=[[0,0.5],[1,0.5]];portConstraint=eastwest;" vertex="1" parent="147">
                    <mxGeometry y="64" width="310" height="26" as="geometry"/>
                </mxCell>
                <mxCell id="274" value="resetChatMembers(newMembers: Array&lt;Player&gt;): void" style="text;strokeColor=none;fillColor=none;align=left;verticalAlign=top;spacingLeft=4;spacingRight=4;overflow=hidden;rotatable=0;points=[[0,0.5],[1,0.5]];portConstraint=eastwest;" vertex="1" parent="147">
                    <mxGeometry y="90" width="310" height="26" as="geometry"/>
                </mxCell>
                <mxCell id="273" value="+ addMessage(message: Message): void" style="text;strokeColor=none;fillColor=none;align=left;verticalAlign=top;spacingLeft=4;spacingRight=4;overflow=hidden;rotatable=0;points=[[0,0.5],[1,0.5]];portConstraint=eastwest;" vertex="1" parent="147">
                    <mxGeometry y="116" width="310" height="26" as="geometry"/>
                </mxCell>
                <mxCell id="272" value="+ static async schema(): Promise&lt;void&gt;" style="text;strokeColor=none;fillColor=none;align=left;verticalAlign=top;spacingLeft=4;spacingRight=4;overflow=hidden;rotatable=0;points=[[0,0.5],[1,0.5]];portConstraint=eastwest;" vertex="1" parent="147">
                    <mxGeometry y="142" width="310" height="26" as="geometry"/>
                </mxCell>
                <mxCell id="151" value="1" style="edgeLabel;html=1;align=center;verticalAlign=middle;resizable=0;points=[];" vertex="1" connectable="0" parent="1">
                    <mxGeometry x="60.00267057425668" y="-780.0008881792936" as="geometry"/>
                </mxCell>
                <mxCell id="157" value="1..*" style="edgeLabel;resizable=0;html=1;align=left;verticalAlign=bottom;" connectable="0" vertex="1" parent="1">
                    <mxGeometry x="200" y="-910" as="geometry">
                        <mxPoint x="-18" y="22" as="offset"/>
                    </mxGeometry>
                </mxCell>
                <mxCell id="160" value="Vote" style="swimlane;fontStyle=1;align=center;verticalAlign=top;childLayout=stackLayout;horizontal=1;startSize=26;horizontalStack=0;resizeParent=1;resizeParentMax=0;resizeLast=0;collapsible=1;marginBottom=0;" vertex="1" parent="1">
                    <mxGeometry x="212.94" y="-700" width="507.06" height="190" as="geometry"/>
                </mxCell>
                <mxCell id="162" value="" style="line;strokeWidth=1;fillColor=none;align=left;verticalAlign=middle;spacingTop=-1;spacingLeft=3;spacingRight=3;rotatable=0;labelPosition=right;points=[];portConstraint=eastwest;strokeColor=inherit;" vertex="1" parent="160">
                    <mxGeometry y="26" width="507.06" height="8" as="geometry"/>
                </mxCell>
                <mxCell id="223" value="+ public startVote(): void" style="text;strokeColor=none;fillColor=none;align=left;verticalAlign=top;spacingLeft=4;spacingRight=4;overflow=hidden;rotatable=0;points=[[0,0.5],[1,0.5]];portConstraint=eastwest;" vertex="1" parent="160">
                    <mxGeometry y="34" width="507.06" height="26" as="geometry"/>
                </mxCell>
                <mxCell id="225" value="+ public endVote(): void" style="text;strokeColor=none;fillColor=none;align=left;verticalAlign=top;spacingLeft=4;spacingRight=4;overflow=hidden;rotatable=0;points=[[0,0.5],[1,0.5]];portConstraint=eastwest;" vertex="1" parent="160">
                    <mxGeometry y="60" width="507.06" height="26" as="geometry"/>
                </mxCell>
                <mxCell id="227" value="+ public isClosed(): boolean" style="text;strokeColor=none;fillColor=none;align=left;verticalAlign=top;spacingLeft=4;spacingRight=4;overflow=hidden;rotatable=0;points=[[0,0.5],[1,0.5]];portConstraint=eastwest;" vertex="1" parent="160">
                    <mxGeometry y="86" width="507.06" height="26" as="geometry"/>
                </mxCell>
                <mxCell id="226" value="+ public countRatification() : { [key: string]: { nbValid: number; nbInv: number } }" style="text;strokeColor=none;fillColor=none;align=left;verticalAlign=top;spacingLeft=4;spacingRight=4;overflow=hidden;rotatable=0;points=[[0,0.5],[1,0.5]];portConstraint=eastwest;" vertex="1" parent="160">
                    <mxGeometry y="112" width="507.06" height="26" as="geometry"/>
                </mxCell>
                <mxCell id="236" value="+ public addProposition(playerWhoVote: Player, playerVoted: Player): void&#10;" style="text;strokeColor=none;fillColor=none;align=left;verticalAlign=top;spacingLeft=4;spacingRight=4;overflow=hidden;rotatable=0;points=[[0,0.5],[1,0.5]];portConstraint=eastwest;" vertex="1" parent="160">
                    <mxGeometry y="138" width="507.06" height="26" as="geometry"/>
                </mxCell>
                <mxCell id="224" value="+ ratifyProposition(playerWhoRatify: Player, playerVoted: Player, ratification: boolean): void" style="text;strokeColor=none;fillColor=none;align=left;verticalAlign=top;spacingLeft=4;spacingRight=4;overflow=hidden;rotatable=0;points=[[0,0.5],[1,0.5]];portConstraint=eastwest;" vertex="1" parent="160">
                    <mxGeometry y="164" width="507.06" height="26" as="geometry"/>
                </mxCell>
                <mxCell id="214" style="edgeStyle=none;html=1;exitX=0.75;exitY=0;exitDx=0;exitDy=0;entryX=0.5;entryY=1;entryDx=0;entryDy=0;fontFamily=Helvetica;fontSize=12;fontColor=#FFFFFF;endArrow=none;endFill=0;" edge="1" parent="1" source="165" target="160">
                    <mxGeometry relative="1" as="geometry"/>
                </mxCell>
                <mxCell id="215" value="prend part" style="edgeLabel;html=1;align=center;verticalAlign=middle;resizable=0;points=[];fontSize=12;fontFamily=Helvetica;fontColor=#FFFFFF;" vertex="1" connectable="0" parent="214">
                    <mxGeometry x="0.1154" y="-1" relative="1" as="geometry">
                        <mxPoint y="-1" as="offset"/>
                    </mxGeometry>
                </mxCell>
                <mxCell id="268" style="edgeStyle=none;html=1;exitX=0;exitY=0;exitDx=0;exitDy=0;entryX=-0.011;entryY=0.719;entryDx=0;entryDy=0;fontFamily=Helvetica;fontSize=12;fontColor=#FFFFFF;entryPerimeter=0;endArrow=diamond;endFill=1;startArrow=none;startFill=0;startSize=8;strokeWidth=1;" edge="1" parent="1" source="165">
                    <mxGeometry relative="1" as="geometry">
                        <mxPoint x="207.47000000000003" y="-956.1819999999998" as="targetPoint"/>
                        <Array as="points">
                            <mxPoint x="140" y="-820"/>
                        </Array>
                    </mxGeometry>
                </mxCell>
                <mxCell id="269" value="Peut parler dans" style="edgeLabel;html=1;align=center;verticalAlign=middle;resizable=0;points=[];fontSize=12;fontFamily=Helvetica;fontColor=#FFFFFF;" vertex="1" connectable="0" parent="268">
                    <mxGeometry x="-0.2557" y="-2" relative="1" as="geometry">
                        <mxPoint x="-21" as="offset"/>
                    </mxGeometry>
                </mxCell>
                <mxCell id="165" value="&lt;b&gt;Player&lt;br&gt;&lt;/b&gt;" style="swimlane;fontStyle=0;align=center;verticalAlign=top;childLayout=stackLayout;horizontal=1;startSize=30;horizontalStack=0;resizeParent=1;resizeParentMax=0;resizeLast=0;collapsible=0;marginBottom=0;html=1;strokeColor=default;" vertex="1" parent="1">
                    <mxGeometry x="160" y="-420" width="430" height="388" as="geometry"/>
                </mxCell>
                <mxCell id="166" value="+ isAlive: Boolean" style="text;html=1;strokeColor=none;fillColor=none;align=left;verticalAlign=middle;spacingLeft=4;spacingRight=4;overflow=hidden;rotatable=0;points=[[0,0.5],[1,0.5]];portConstraint=eastwest;" vertex="1" parent="165">
                    <mxGeometry y="30" width="430" height="30" as="geometry"/>
                </mxCell>
                <mxCell id="281" value="+ isW&lt;span style=&quot;background-color: rgb(30, 30, 30); color: rgb(218, 218, 218); font-family: Menlo, Monaco, &amp;quot;Courier New&amp;quot;, monospace;&quot;&gt;erewolf&lt;/span&gt;&lt;span style=&quot;background-color: initial;&quot;&gt;: Boolean&lt;/span&gt;" style="text;html=1;strokeColor=none;fillColor=none;align=left;verticalAlign=middle;spacingLeft=4;spacingRight=4;overflow=hidden;rotatable=0;points=[[0,0.5],[1,0.5]];portConstraint=eastwest;" vertex="1" parent="165">
                    <mxGeometry y="60" width="430" height="30" as="geometry"/>
                </mxCell>
                <mxCell id="167" value="" style="line;strokeWidth=1;fillColor=none;align=left;verticalAlign=middle;spacingTop=-1;spacingLeft=3;spacingRight=3;rotatable=0;labelPosition=right;points=[];portConstraint=eastwest;strokeColor=default;" vertex="1" parent="165">
                    <mxGeometry y="90" width="430" height="8" as="geometry"/>
                </mxCell>
                <mxCell id="316" value="+ public startVote(): void" style="text;strokeColor=none;fillColor=none;align=left;verticalAlign=top;spacingLeft=4;spacingRight=4;overflow=hidden;rotatable=0;points=[[0,0.5],[1,0.5]];portConstraint=eastwest;" vertex="1" parent="165">
                    <mxGeometry y="98" width="430" height="26" as="geometry"/>
                </mxCell>
                <mxCell id="315" value="+&amp;nbsp;&lt;span style=&quot;font-family: Menlo, Monaco, &amp;quot;Courier New&amp;quot;, monospace;&quot;&gt;kill&lt;/span&gt;&lt;span style=&quot;font-family: Menlo, Monaco, &amp;quot;Courier New&amp;quot;, monospace;&quot;&gt;():&lt;/span&gt;&lt;span style=&quot;background-color: rgb(30, 30, 30); font-family: Menlo, Monaco, &amp;quot;Courier New&amp;quot;, monospace;&quot;&gt; &lt;/span&gt;&lt;span style=&quot;font-family: Menlo, Monaco, &amp;quot;Courier New&amp;quot;, monospace;&quot;&gt;void&lt;/span&gt;" style="text;html=1;strokeColor=none;fillColor=none;align=left;verticalAlign=middle;spacingLeft=4;spacingRight=4;overflow=hidden;rotatable=0;points=[[0,0.5],[1,0.5]];portConstraint=eastwest;" vertex="1" parent="165">
                    <mxGeometry y="124" width="430" height="30" as="geometry"/>
                </mxCell>
                <mxCell id="319" value="+ isDead(): boolean" style="text;strokeColor=none;fillColor=none;align=left;verticalAlign=top;spacingLeft=4;spacingRight=4;overflow=hidden;rotatable=0;points=[[0,0.5],[1,0.5]];portConstraint=eastwest;" vertex="1" parent="165">
                    <mxGeometry y="154" width="430" height="26" as="geometry"/>
                </mxCell>
                <mxCell id="322" value="+ getRole(): Role" style="text;strokeColor=none;fillColor=none;align=left;verticalAlign=top;spacingLeft=4;spacingRight=4;overflow=hidden;rotatable=0;points=[[0,0.5],[1,0.5]];portConstraint=eastwest;" vertex="1" parent="165">
                    <mxGeometry y="180" width="430" height="26" as="geometry"/>
                </mxCell>
                <mxCell id="325" value="+ contaminated(): boolean" style="text;strokeColor=none;fillColor=none;align=left;verticalAlign=top;spacingLeft=4;spacingRight=4;overflow=hidden;rotatable=0;points=[[0,0.5],[1,0.5]];portConstraint=eastwest;" vertex="1" parent="165">
                    <mxGeometry y="206" width="430" height="26" as="geometry"/>
                </mxCell>
                <mxCell id="327" value="+ sendMessage(event: Event, data: Json) : void" style="text;strokeColor=none;fillColor=none;align=left;verticalAlign=top;spacingLeft=4;spacingRight=4;overflow=hidden;rotatable=0;points=[[0,0.5],[1,0.5]];portConstraint=eastwest;" vertex="1" parent="165">
                    <mxGeometry y="232" width="430" height="26" as="geometry"/>
                </mxCell>
                <mxCell id="326" value="+ sendError(event: string, status: number, errorMessage: string): void" style="text;strokeColor=none;fillColor=none;align=left;verticalAlign=top;spacingLeft=4;spacingRight=4;overflow=hidden;rotatable=0;points=[[0,0.5],[1,0.5]];portConstraint=eastwest;" vertex="1" parent="165">
                    <mxGeometry y="258" width="430" height="26" as="geometry"/>
                </mxCell>
                <mxCell id="324" value="+ sendInfoAllPlayers(): void" style="text;strokeColor=none;fillColor=none;align=left;verticalAlign=top;spacingLeft=4;spacingRight=4;overflow=hidden;rotatable=0;points=[[0,0.5],[1,0.5]];portConstraint=eastwest;" vertex="1" parent="165">
                    <mxGeometry y="284" width="430" height="26" as="geometry"/>
                </mxCell>
                <mxCell id="318" value="+ static alivePlayers(players: Array&lt;Player&gt;): Array&lt;Player&gt;" style="text;strokeColor=none;fillColor=none;align=left;verticalAlign=top;spacingLeft=4;spacingRight=4;overflow=hidden;rotatable=0;points=[[0,0.5],[1,0.5]];portConstraint=eastwest;" vertex="1" parent="165">
                    <mxGeometry y="310" width="430" height="26" as="geometry"/>
                </mxCell>
                <mxCell id="317" value="+ static async load(game: Game, data: json) : Player" style="text;strokeColor=none;fillColor=none;align=left;verticalAlign=top;spacingLeft=4;spacingRight=4;overflow=hidden;rotatable=0;points=[[0,0.5],[1,0.5]];portConstraint=eastwest;" vertex="1" parent="165">
                    <mxGeometry y="336" width="430" height="26" as="geometry"/>
                </mxCell>
                <mxCell id="323" value="+ static schema = async (): Promise&lt;void&gt;" style="text;strokeColor=none;fillColor=none;align=left;verticalAlign=top;spacingLeft=4;spacingRight=4;overflow=hidden;rotatable=0;points=[[0,0.5],[1,0.5]];portConstraint=eastwest;" vertex="1" parent="165">
                    <mxGeometry y="362" width="430" height="26" as="geometry"/>
                </mxCell>
                <mxCell id="169" value="rejoindre" style="rounded=0;elbow=vertical;html=1;startArrow=diamondThin;startFill=1;endArrow=none;endFill=0;startSize=18;endSize=6;entryX=0;entryY=0;entryDx=0;entryDy=0;exitX=1;exitY=0.5;exitDx=0;exitDy=0;" edge="1" parent="1" source="191" target="165">
                    <mxGeometry relative="1" as="geometry">
                        <mxPoint x="-94.99928571428578" y="-718.25" as="targetPoint"/>
                        <mxPoint x="-240" y="-860" as="sourcePoint"/>
                    </mxGeometry>
                </mxCell>
                <mxCell id="170" value="1" style="edgeLabel;resizable=0;html=1;align=left;verticalAlign=bottom;" connectable="0" vertex="1" parent="1">
                    <mxGeometry x="-150.09" y="-812.5699999999999" as="geometry">
                        <mxPoint x="-50" y="4" as="offset"/>
                    </mxGeometry>
                </mxCell>
                <mxCell id="172" style="edgeStyle=none;html=1;entryX=1;entryY=0.5;entryDx=0;entryDy=0;fontFamily=Helvetica;fontSize=12;fontColor=#FFFFFF;endArrow=none;endFill=0;" edge="1" parent="1" target="178">
                    <mxGeometry relative="1" as="geometry">
                        <mxPoint x="253" y="-700" as="sourcePoint"/>
                        <mxPoint x="-180" y="-870" as="targetPoint"/>
                    </mxGeometry>
                </mxCell>
                <mxCell id="173" value="current vote" style="edgeLabel;html=1;align=center;verticalAlign=middle;resizable=0;points=[];fontSize=12;fontFamily=Helvetica;fontColor=#FFFFFF;" vertex="1" connectable="0" parent="172">
                    <mxGeometry x="-0.1014" y="3" relative="1" as="geometry">
                        <mxPoint x="43" y="6" as="offset"/>
                    </mxGeometry>
                </mxCell>
                <mxCell id="207" value="VoteType" style="swimlane;fontStyle=1;align=center;verticalAlign=top;childLayout=stackLayout;horizontal=1;startSize=26;horizontalStack=0;resizeParent=1;resizeParentMax=0;resizeLast=0;collapsible=1;marginBottom=0;" vertex="1" parent="1">
                    <mxGeometry x="550" y="-855.5700000000002" width="160" height="86" as="geometry"/>
                </mxCell>
                <mxCell id="208" value=" VOTE_VILLAGE" style="text;strokeColor=none;fillColor=none;align=left;verticalAlign=top;spacingLeft=4;spacingRight=4;overflow=hidden;rotatable=0;points=[[0,0.5],[1,0.5]];portConstraint=eastwest;" vertex="1" parent="207">
                    <mxGeometry y="26" width="160" height="26" as="geometry"/>
                </mxCell>
                <mxCell id="209" value="" style="line;strokeWidth=1;fillColor=none;align=left;verticalAlign=middle;spacingTop=-1;spacingLeft=3;spacingRight=3;rotatable=0;labelPosition=right;points=[];portConstraint=eastwest;strokeColor=inherit;" vertex="1" parent="207">
                    <mxGeometry y="52" width="160" height="8" as="geometry"/>
                </mxCell>
                <mxCell id="210" value="VOTE_WEREWOLF" style="text;strokeColor=none;fillColor=none;align=left;verticalAlign=top;spacingLeft=4;spacingRight=4;overflow=hidden;rotatable=0;points=[[0,0.5],[1,0.5]];portConstraint=eastwest;" vertex="1" parent="207">
                    <mxGeometry y="60" width="160" height="26" as="geometry"/>
                </mxCell>
                <mxCell id="211" value="have type" style="edgeStyle=none;html=1;exitX=0.962;exitY=1.105;exitDx=0;exitDy=0;entryX=0.75;entryY=0;entryDx=0;entryDy=0;fontFamily=Helvetica;fontSize=12;fontColor=#FFFFFF;exitPerimeter=0;endArrow=none;endFill=0;" edge="1" parent="1" source="210" target="160">
                    <mxGeometry relative="1" as="geometry">
                        <mxPoint x="372.94000000000005" y="-661" as="targetPoint"/>
                    </mxGeometry>
                </mxCell>
                <mxCell id="212" value="1" style="edgeLabel;html=1;align=center;verticalAlign=middle;resizable=0;points=[];" vertex="1" connectable="0" parent="1">
                    <mxGeometry x="70.00267057425668" y="-770.0008881792936" as="geometry">
                        <mxPoint x="181" y="59" as="offset"/>
                    </mxGeometry>
                </mxCell>
                <mxCell id="216" value="1" style="text;html=1;align=center;verticalAlign=middle;resizable=0;points=[];autosize=1;strokeColor=none;fillColor=none;fontSize=12;fontFamily=Helvetica;fontColor=#FFFFFF;" vertex="1" parent="1">
                    <mxGeometry x="45" y="-890" width="30" height="30" as="geometry"/>
                </mxCell>
                <mxCell id="217" value="0..*" style="text;html=1;align=center;verticalAlign=middle;resizable=0;points=[];autosize=1;strokeColor=none;fillColor=none;fontSize=12;fontFamily=Helvetica;fontColor=#FFFFFF;rotation=90;" vertex="1" parent="1">
                    <mxGeometry x="570" y="-730" width="40" height="30" as="geometry"/>
                </mxCell>
                <mxCell id="218" value="1" style="text;html=1;align=center;verticalAlign=middle;resizable=0;points=[];autosize=1;strokeColor=none;fillColor=none;fontSize=12;fontFamily=Helvetica;fontColor=#FFFFFF;" vertex="1" parent="1">
                    <mxGeometry x="700" y="-770" width="30" height="30" as="geometry"/>
                </mxCell>
                <mxCell id="219" value="0..*" style="text;html=1;align=center;verticalAlign=middle;resizable=0;points=[];autosize=1;strokeColor=none;fillColor=none;fontSize=12;fontFamily=Helvetica;fontColor=#FFFFFF;" vertex="1" parent="1">
                    <mxGeometry x="470" y="-510" width="40" height="30" as="geometry"/>
                </mxCell>
                <mxCell id="220" value="2..*" style="text;html=1;align=center;verticalAlign=middle;resizable=0;points=[];autosize=1;strokeColor=none;fillColor=none;fontSize=12;fontFamily=Helvetica;fontColor=#FFFFFF;" vertex="1" parent="1">
                    <mxGeometry x="486.47" y="-450" width="40" height="30" as="geometry"/>
                </mxCell>
                <mxCell id="237" value="ChatType" style="swimlane;fontStyle=1;align=center;verticalAlign=top;childLayout=stackLayout;horizontal=1;startSize=26;horizontalStack=0;resizeParent=1;resizeParentMax=0;resizeLast=0;collapsible=1;marginBottom=0;" vertex="1" parent="1">
                    <mxGeometry x="105" y="-1167" width="160" height="104" as="geometry"/>
                </mxCell>
                <mxCell id="242" value="CHAT_VILLAGE" style="text;strokeColor=none;fillColor=none;align=left;verticalAlign=top;spacingLeft=4;spacingRight=4;overflow=hidden;rotatable=0;points=[[0,0.5],[1,0.5]];portConstraint=eastwest;" vertex="1" parent="237">
                    <mxGeometry y="26" width="160" height="26" as="geometry"/>
                </mxCell>
                <mxCell id="245" value="CHAT_WEREWOLF" style="text;strokeColor=none;fillColor=none;align=left;verticalAlign=top;spacingLeft=4;spacingRight=4;overflow=hidden;rotatable=0;points=[[0,0.5],[1,0.5]];portConstraint=eastwest;" vertex="1" parent="237">
                    <mxGeometry y="52" width="160" height="26" as="geometry"/>
                </mxCell>
                <mxCell id="244" value="CHAT_SPIRITISM" style="text;strokeColor=none;fillColor=none;align=left;verticalAlign=top;spacingLeft=4;spacingRight=4;overflow=hidden;rotatable=0;points=[[0,0.5],[1,0.5]];portConstraint=eastwest;" vertex="1" parent="237">
                    <mxGeometry y="78" width="160" height="26" as="geometry"/>
                </mxCell>
                <mxCell id="246" value="Message" style="swimlane;fontStyle=1;align=center;verticalAlign=top;childLayout=stackLayout;horizontal=1;startSize=26;horizontalStack=0;resizeParent=1;resizeParentMax=0;resizeLast=0;collapsible=1;marginBottom=0;" vertex="1" parent="1">
                    <mxGeometry x="470" y="-1167" width="160" height="130" as="geometry"/>
                </mxCell>
                <mxCell id="247" value="+ game: number" style="text;strokeColor=none;fillColor=none;align=left;verticalAlign=top;spacingLeft=4;spacingRight=4;overflow=hidden;rotatable=0;points=[[0,0.5],[1,0.5]];portConstraint=eastwest;" vertex="1" parent="246">
                    <mxGeometry y="26" width="160" height="26" as="geometry"/>
                </mxCell>
                <mxCell id="248" value="+user: string" style="text;strokeColor=none;fillColor=none;align=left;verticalAlign=top;spacingLeft=4;spacingRight=4;overflow=hidden;rotatable=0;points=[[0,0.5],[1,0.5]];portConstraint=eastwest;" vertex="1" parent="246">
                    <mxGeometry y="52" width="160" height="26" as="geometry"/>
                </mxCell>
                <mxCell id="251" value="+ content: string" style="text;strokeColor=none;fillColor=none;align=left;verticalAlign=top;spacingLeft=4;spacingRight=4;overflow=hidden;rotatable=0;points=[[0,0.5],[1,0.5]];portConstraint=eastwest;" vertex="1" parent="246">
                    <mxGeometry y="78" width="160" height="26" as="geometry"/>
                </mxCell>
                <mxCell id="249" value="+ date: number" style="text;strokeColor=none;fillColor=none;align=left;verticalAlign=top;spacingLeft=4;spacingRight=4;overflow=hidden;rotatable=0;points=[[0,0.5],[1,0.5]];portConstraint=eastwest;" vertex="1" parent="246">
                    <mxGeometry y="104" width="160" height="26" as="geometry"/>
                </mxCell>
                <mxCell id="252" style="edgeStyle=none;html=1;exitX=1;exitY=0.5;exitDx=0;exitDy=0;entryX=0;entryY=0.5;entryDx=0;entryDy=0;fontFamily=Helvetica;fontSize=12;fontColor=#FFFFFF;endArrow=none;endFill=0;" edge="1" parent="1" source="245" target="248">
                    <mxGeometry relative="1" as="geometry"/>
                </mxCell>
                <mxCell id="254" value="est de type" style="edgeLabel;html=1;align=center;verticalAlign=middle;resizable=0;points=[];fontSize=12;fontFamily=Helvetica;fontColor=#FFFFFF;" vertex="1" connectable="0" parent="252">
                    <mxGeometry x="-0.2216" y="4" relative="1" as="geometry">
                        <mxPoint x="1" as="offset"/>
                    </mxGeometry>
                </mxCell>
                <mxCell id="255" style="edgeStyle=none;html=1;entryX=0.25;entryY=0;entryDx=0;entryDy=0;fontFamily=Helvetica;fontSize=12;fontColor=#FFFFFF;endArrow=none;endFill=0;exitX=0.124;exitY=1.115;exitDx=0;exitDy=0;exitPerimeter=0;" edge="1" parent="1" source="244" target="147">
                    <mxGeometry relative="1" as="geometry">
                        <mxPoint x="190" y="-1070" as="sourcePoint"/>
                    </mxGeometry>
                </mxCell>
                <mxCell id="256" value="est de type" style="edgeLabel;html=1;align=center;verticalAlign=middle;resizable=0;points=[];fontSize=12;fontFamily=Helvetica;fontColor=#FFFFFF;" vertex="1" connectable="0" parent="255">
                    <mxGeometry x="-0.1061" y="7" relative="1" as="geometry">
                        <mxPoint x="6" y="18" as="offset"/>
                    </mxGeometry>
                </mxCell>
                <mxCell id="260" style="edgeStyle=none;html=1;entryX=0.476;entryY=1.08;entryDx=0;entryDy=0;fontFamily=Helvetica;fontSize=12;fontColor=#FFFFFF;entryPerimeter=0;exitX=1;exitY=0.25;exitDx=0;exitDy=0;endArrow=none;endFill=0;" edge="1" parent="1" source="147" target="249">
                    <mxGeometry relative="1" as="geometry">
                        <mxPoint x="610" y="-950" as="sourcePoint"/>
                        <Array as="points">
                            <mxPoint x="550" y="-1010"/>
                        </Array>
                    </mxGeometry>
                </mxCell>
                <mxCell id="261" value="est composé" style="edgeLabel;html=1;align=center;verticalAlign=middle;resizable=0;points=[];fontSize=12;fontFamily=Helvetica;fontColor=#FFFFFF;" vertex="1" connectable="0" parent="260">
                    <mxGeometry x="-0.0715" y="5" relative="1" as="geometry">
                        <mxPoint x="26" as="offset"/>
                    </mxGeometry>
                </mxCell>
                <mxCell id="277" value="jouer par" style="edgeStyle=none;html=1;exitX=0;exitY=0.5;exitDx=0;exitDy=0;entryX=1;entryY=0.5;entryDx=0;entryDy=0;fontFamily=Helvetica;fontSize=12;fontColor=#FFFFFF;endArrow=none;endFill=0;" edge="1" parent="1" source="322" target="140">
                    <mxGeometry x="0.1392" y="-2" relative="1" as="geometry">
                        <mxPoint x="160" y="-321" as="sourcePoint"/>
                        <Array as="points">
                            <mxPoint x="60" y="-230"/>
                            <mxPoint x="-340" y="-250"/>
                        </Array>
                        <mxPoint y="1" as="offset"/>
                    </mxGeometry>
                </mxCell>
                <mxCell id="282" value="&lt;b&gt;Power&lt;br&gt;&lt;/b&gt;" style="swimlane;fontStyle=0;align=center;verticalAlign=top;childLayout=stackLayout;horizontal=1;startSize=30;horizontalStack=0;resizeParent=1;resizeParentMax=0;resizeLast=0;collapsible=0;marginBottom=0;html=1;strokeColor=default;" vertex="1" parent="1">
                    <mxGeometry x="670" y="-310" width="460" height="194" as="geometry"/>
                </mxCell>
                <mxCell id="331" value="+ name: string" style="text;strokeColor=none;fillColor=none;align=left;verticalAlign=top;spacingLeft=4;spacingRight=4;overflow=hidden;rotatable=0;points=[[0,0.5],[1,0.5]];portConstraint=eastwest;" vertex="1" parent="282">
                    <mxGeometry y="30" width="460" height="26" as="geometry"/>
                </mxCell>
                <mxCell id="334" value="+ applyDay: boolean" style="text;strokeColor=none;fillColor=none;align=left;verticalAlign=top;spacingLeft=4;spacingRight=4;overflow=hidden;rotatable=0;points=[[0,0.5],[1,0.5]];portConstraint=eastwest;" vertex="1" parent="282">
                    <mxGeometry y="56" width="460" height="26" as="geometry"/>
                </mxCell>
                <mxCell id="335" value="+ alreadyUsed: boolean" style="text;strokeColor=none;fillColor=none;align=left;verticalAlign=top;spacingLeft=4;spacingRight=4;overflow=hidden;rotatable=0;points=[[0,0.5],[1,0.5]];portConstraint=eastwest;" vertex="1" parent="282">
                    <mxGeometry y="82" width="460" height="26" as="geometry"/>
                </mxCell>
                <mxCell id="285" value="" style="line;strokeWidth=1;fillColor=none;align=left;verticalAlign=middle;spacingTop=-1;spacingLeft=3;spacingRight=3;rotatable=0;labelPosition=right;points=[];portConstraint=eastwest;strokeColor=default;" vertex="1" parent="282">
                    <mxGeometry y="108" width="460" height="8" as="geometry"/>
                </mxCell>
                <mxCell id="348" value="+ addTarget(target: Player): void" style="text;strokeColor=none;fillColor=none;align=left;verticalAlign=top;spacingLeft=4;spacingRight=4;overflow=hidden;rotatable=0;points=[[0,0.5],[1,0.5]];portConstraint=eastwest;" vertex="1" parent="282">
                    <mxGeometry y="116" width="460" height="26" as="geometry"/>
                </mxCell>
                <mxCell id="349" value="+ abstract usePower(game: Game, player: Player, data: Json): void" style="text;strokeColor=none;fillColor=none;align=left;verticalAlign=top;spacingLeft=4;spacingRight=4;overflow=hidden;rotatable=0;points=[[0,0.5],[1,0.5]];portConstraint=eastwest;" vertex="1" parent="282">
                    <mxGeometry y="142" width="460" height="26" as="geometry"/>
                </mxCell>
                <mxCell id="330" value="+ abstract applyPower(game: Game, player: Player): void" style="text;strokeColor=none;fillColor=none;align=left;verticalAlign=top;spacingLeft=4;spacingRight=4;overflow=hidden;rotatable=0;points=[[0,0.5],[1,0.5]];portConstraint=eastwest;" vertex="1" parent="282">
                    <mxGeometry y="168" width="460" height="26" as="geometry"/>
                </mxCell>
                <mxCell id="289" value="A comme pouvoir" style="edgeStyle=none;html=1;exitX=1;exitY=0.5;exitDx=0;exitDy=0;entryX=0;entryY=0.25;entryDx=0;entryDy=0;fontFamily=Helvetica;fontSize=12;fontColor=#FFFFFF;endArrow=none;endFill=0;" edge="1" parent="1" source="166" target="282">
                    <mxGeometry x="0.2469" y="7" relative="1" as="geometry">
                        <Array as="points">
                            <mxPoint x="660" y="-370"/>
                        </Array>
                        <mxPoint as="offset"/>
                    </mxGeometry>
                </mxCell>
                <mxCell id="294" value="" style="triangle;whiteSpace=wrap;html=1;fontFamily=Helvetica;fontSize=12;fontColor=#FFFFFF;fillColor=#FFFFFF;gradientColor=none;rotation=-180;" vertex="1" parent="1">
                    <mxGeometry x="-380" y="-945" width="20" height="15" as="geometry"/>
                </mxCell>
                <mxCell id="297" value="" style="triangle;whiteSpace=wrap;html=1;fontFamily=Helvetica;fontSize=12;fontColor=#FFFFFF;fillColor=#FFFFFF;gradientColor=none;rotation=-125;" vertex="1" parent="1">
                    <mxGeometry x="206.07" y="-1059.01" width="20" height="16.96" as="geometry"/>
                </mxCell>
                <mxCell id="300" value="1" style="text;html=1;align=center;verticalAlign=middle;resizable=0;points=[];autosize=1;strokeColor=none;fillColor=none;fontSize=12;fontFamily=Helvetica;fontColor=#FFFFFF;" vertex="1" parent="1">
                    <mxGeometry x="205" y="-1085" width="30" height="30" as="geometry"/>
                </mxCell>
                <mxCell id="301" value="0..*" style="text;html=1;align=center;verticalAlign=middle;resizable=0;points=[];autosize=1;strokeColor=none;fillColor=none;fontSize=12;fontFamily=Helvetica;fontColor=#FFFFFF;" vertex="1" parent="1">
                    <mxGeometry x="280" y="-1030" width="40" height="30" as="geometry"/>
                </mxCell>
                <mxCell id="306" value="" style="triangle;whiteSpace=wrap;html=1;fontFamily=Helvetica;fontSize=12;fontColor=#FFFFFF;fillColor=#FFFFFF;gradientColor=none;rotation=-185;" vertex="1" parent="1">
                    <mxGeometry x="350.01" y="-1139.67" width="22.5" height="16.96" as="geometry"/>
                </mxCell>
                <mxCell id="307" value="" style="triangle;whiteSpace=wrap;html=1;fontFamily=Helvetica;fontSize=12;fontColor=#FFFFFF;fillColor=#FFFFFF;gradientColor=none;rotation=-125;" vertex="1" parent="1">
                    <mxGeometry x="556.07" y="-1027.05" width="20" height="16.96" as="geometry"/>
                </mxCell>
                <mxCell id="308" value="0..*" style="text;html=1;align=center;verticalAlign=middle;resizable=0;points=[];autosize=1;strokeColor=none;fillColor=none;fontSize=12;fontFamily=Helvetica;fontColor=#FFFFFF;" vertex="1" parent="1">
                    <mxGeometry x="520" y="-975" width="40" height="30" as="geometry"/>
                </mxCell>
                <mxCell id="309" value="1" style="text;html=1;align=center;verticalAlign=middle;resizable=0;points=[];autosize=1;strokeColor=none;fillColor=none;fontSize=12;fontFamily=Helvetica;fontColor=#FFFFFF;" vertex="1" parent="1">
                    <mxGeometry x="486.47" y="-1055" width="30" height="30" as="geometry"/>
                </mxCell>
                <mxCell id="310" value="" style="triangle;whiteSpace=wrap;html=1;fontFamily=Helvetica;fontSize=12;fontColor=#FFFFFF;fillColor=#FFFFFF;gradientColor=none;rotation=-30;" vertex="1" parent="1">
                    <mxGeometry x="639.26" y="-760.16" width="15" height="13.48" as="geometry"/>
                </mxCell>
                <mxCell id="311" value="0..*" style="text;html=1;align=center;verticalAlign=middle;resizable=0;points=[];autosize=1;strokeColor=none;fillColor=none;fontSize=12;fontFamily=Helvetica;fontColor=#FFFFFF;" vertex="1" parent="1">
                    <mxGeometry x="165" y="-980" width="40" height="30" as="geometry"/>
                </mxCell>
                <mxCell id="312" value="1..*" style="text;html=1;align=center;verticalAlign=middle;resizable=0;points=[];autosize=1;strokeColor=none;fillColor=none;fontSize=12;fontFamily=Helvetica;fontColor=#FFFFFF;" vertex="1" parent="1">
                    <mxGeometry x="160" y="-490" width="40" height="30" as="geometry"/>
                </mxCell>
                <mxCell id="313" value="" style="triangle;whiteSpace=wrap;html=1;fontFamily=Helvetica;fontSize=12;fontColor=#FFFFFF;fillColor=#FFFFFF;gradientColor=none;rotation=-86;" vertex="1" parent="1">
                    <mxGeometry x="120" y="-660" width="15" height="13.48" as="geometry"/>
                </mxCell>
                <mxCell id="314" value="" style="triangle;whiteSpace=wrap;html=1;fontFamily=Helvetica;fontSize=12;fontColor=#FFFFFF;fillColor=#FFFFFF;gradientColor=none;rotation=-125;" vertex="1" parent="1">
                    <mxGeometry x="105" y="-558.48" width="15" height="13.48" as="geometry"/>
                </mxCell>
                <mxCell id="340" value="" style="triangle;whiteSpace=wrap;html=1;fontFamily=Helvetica;fontSize=12;fontColor=#FFFFFF;fillColor=#FFFFFF;gradientColor=none;rotation=80;" vertex="1" parent="1">
                    <mxGeometry x="670" y="-379.99999999999994" width="15" height="13.48" as="geometry"/>
                </mxCell>
                <mxCell id="342" style="edgeStyle=none;html=1;exitX=0;exitY=0.5;exitDx=0;exitDy=0;entryX=1;entryY=0.5;entryDx=0;entryDy=0;strokeWidth=1;fontFamily=Helvetica;fontSize=12;fontColor=#F0F0F0;startArrow=none;startFill=0;endArrow=none;endFill=0;" edge="1" parent="1" source="334" target="319">
                    <mxGeometry relative="1" as="geometry"/>
                </mxCell>
                <mxCell id="343" value="target" style="edgeLabel;html=1;align=center;verticalAlign=middle;resizable=0;points=[];fontSize=12;fontFamily=Helvetica;fontColor=#F0F0F0;" vertex="1" connectable="0" parent="342">
                    <mxGeometry x="0.2562" y="-1" relative="1" as="geometry">
                        <mxPoint as="offset"/>
                    </mxGeometry>
                </mxCell>
                <mxCell id="344" value="" style="triangle;whiteSpace=wrap;html=1;fontFamily=Helvetica;fontSize=12;fontColor=#FFFFFF;fillColor=#FFFFFF;gradientColor=none;rotation=-180;" vertex="1" parent="1">
                    <mxGeometry x="610" y="-279.99999999999994" width="15" height="13.48" as="geometry"/>
                </mxCell>
                <mxCell id="345" value="1..*" style="text;html=1;align=center;verticalAlign=middle;resizable=0;points=[];autosize=1;strokeColor=none;fillColor=none;fontSize=12;fontFamily=Helvetica;fontColor=#F0F0F0;" vertex="1" parent="1">
                    <mxGeometry x="580" y="-255" width="40" height="30" as="geometry"/>
                </mxCell>
                <mxCell id="346" value="1" style="text;html=1;align=center;verticalAlign=middle;resizable=0;points=[];autosize=1;strokeColor=none;fillColor=none;fontSize=12;fontFamily=Helvetica;fontColor=#F0F0F0;" vertex="1" parent="1">
                    <mxGeometry x="645" y="-325" width="30" height="30" as="geometry"/>
                </mxCell>
                <mxCell id="350" value="&lt;b&gt;SpiritismPower&lt;br&gt;&lt;/b&gt;" style="swimlane;fontStyle=0;align=center;verticalAlign=top;childLayout=stackLayout;horizontal=1;startSize=30;horizontalStack=0;resizeParent=1;resizeParentMax=0;resizeLast=0;collapsible=0;marginBottom=0;html=1;strokeColor=default;" vertex="1" parent="1">
                    <mxGeometry x="850" y="-620" width="320" height="90" as="geometry"/>
                </mxCell>
                <mxCell id="354" value="" style="line;strokeWidth=1;fillColor=none;align=left;verticalAlign=middle;spacingTop=-1;spacingLeft=3;spacingRight=3;rotatable=0;labelPosition=right;points=[];portConstraint=eastwest;strokeColor=default;" vertex="1" parent="350">
                    <mxGeometry y="30" width="320" height="8" as="geometry"/>
                </mxCell>
                <mxCell id="356" value="+ usePower(game: Game, player: Player, data: Json): void" style="text;strokeColor=none;fillColor=none;align=left;verticalAlign=top;spacingLeft=4;spacingRight=4;overflow=hidden;rotatable=0;points=[[0,0.5],[1,0.5]];portConstraint=eastwest;" vertex="1" parent="350">
                    <mxGeometry y="38" width="320" height="26" as="geometry"/>
                </mxCell>
                <mxCell id="357" value="+ applyPower(game: Game, player: Player): void" style="text;strokeColor=none;fillColor=none;align=left;verticalAlign=top;spacingLeft=4;spacingRight=4;overflow=hidden;rotatable=0;points=[[0,0.5],[1,0.5]];portConstraint=eastwest;" vertex="1" parent="350">
                    <mxGeometry y="64" width="320" height="26" as="geometry"/>
                </mxCell>
                <mxCell id="361" value="Appliquer sur" style="edgeStyle=none;html=1;exitX=0;exitY=0.5;exitDx=0;exitDy=0;entryX=1;entryY=0;entryDx=0;entryDy=0;strokeWidth=1;fontFamily=Helvetica;fontSize=12;fontColor=#F0F0F0;startArrow=none;startFill=0;endArrow=none;endFill=0;" edge="1" parent="1" source="356" target="165">
                    <mxGeometry x="0.255" y="6" relative="1" as="geometry">
                        <mxPoint y="1" as="offset"/>
                    </mxGeometry>
                </mxCell>
                <mxCell id="362" value="1" style="text;html=1;align=center;verticalAlign=middle;resizable=0;points=[];autosize=1;strokeColor=none;fillColor=none;fontSize=12;fontFamily=Helvetica;fontColor=#F0F0F0;" vertex="1" parent="1">
                    <mxGeometry x="585" y="-455" width="30" height="30" as="geometry"/>
                </mxCell>
                <mxCell id="363" value="" style="triangle;whiteSpace=wrap;html=1;fontFamily=Helvetica;fontSize=12;fontColor=#FFFFFF;fillColor=#FFFFFF;gradientColor=none;rotation=-210;" vertex="1" parent="1">
                    <mxGeometry x="685" y="-449.99999999999994" width="15" height="13.48" as="geometry"/>
                </mxCell>
                <mxCell id="364" value="&lt;b&gt;InsomniaPower&lt;br&gt;&lt;/b&gt;" style="swimlane;fontStyle=0;align=center;verticalAlign=top;childLayout=stackLayout;horizontal=1;startSize=30;horizontalStack=0;resizeParent=1;resizeParentMax=0;resizeLast=0;collapsible=0;marginBottom=0;html=1;strokeColor=default;" vertex="1" parent="1">
                    <mxGeometry x="850" y="-760.16" width="320" height="90" as="geometry"/>
                </mxCell>
                <mxCell id="365" value="" style="line;strokeWidth=1;fillColor=none;align=left;verticalAlign=middle;spacingTop=-1;spacingLeft=3;spacingRight=3;rotatable=0;labelPosition=right;points=[];portConstraint=eastwest;strokeColor=default;" vertex="1" parent="364">
                    <mxGeometry y="30" width="320" height="8" as="geometry"/>
                </mxCell>
                <mxCell id="366" value="+ usePower(game: Game, player: Player, data: Json): void" style="text;strokeColor=none;fillColor=none;align=left;verticalAlign=top;spacingLeft=4;spacingRight=4;overflow=hidden;rotatable=0;points=[[0,0.5],[1,0.5]];portConstraint=eastwest;" vertex="1" parent="364">
                    <mxGeometry y="38" width="320" height="26" as="geometry"/>
                </mxCell>
                <mxCell id="367" value="+ applyPower(game: Game, player: Player): void" style="text;strokeColor=none;fillColor=none;align=left;verticalAlign=top;spacingLeft=4;spacingRight=4;overflow=hidden;rotatable=0;points=[[0,0.5],[1,0.5]];portConstraint=eastwest;" vertex="1" parent="364">
                    <mxGeometry y="64" width="320" height="26" as="geometry"/>
                </mxCell>
                <mxCell id="368" value="&lt;b&gt;ContaminationPower&lt;br&gt;&lt;/b&gt;" style="swimlane;fontStyle=0;align=center;verticalAlign=top;childLayout=stackLayout;horizontal=1;startSize=30;horizontalStack=0;resizeParent=1;resizeParentMax=0;resizeLast=0;collapsible=0;marginBottom=0;html=1;strokeColor=default;" vertex="1" parent="1">
                    <mxGeometry x="1260" y="-760.16" width="320" height="90" as="geometry"/>
                </mxCell>
                <mxCell id="369" value="" style="line;strokeWidth=1;fillColor=none;align=left;verticalAlign=middle;spacingTop=-1;spacingLeft=3;spacingRight=3;rotatable=0;labelPosition=right;points=[];portConstraint=eastwest;strokeColor=default;" vertex="1" parent="368">
                    <mxGeometry y="30" width="320" height="8" as="geometry"/>
                </mxCell>
                <mxCell id="370" value="+ usePower(game: Game, player: Player, data: Json): void" style="text;strokeColor=none;fillColor=none;align=left;verticalAlign=top;spacingLeft=4;spacingRight=4;overflow=hidden;rotatable=0;points=[[0,0.5],[1,0.5]];portConstraint=eastwest;" vertex="1" parent="368">
                    <mxGeometry y="38" width="320" height="26" as="geometry"/>
                </mxCell>
                <mxCell id="371" value="+ applyPower(game: Game, player: Player): void" style="text;strokeColor=none;fillColor=none;align=left;verticalAlign=top;spacingLeft=4;spacingRight=4;overflow=hidden;rotatable=0;points=[[0,0.5],[1,0.5]];portConstraint=eastwest;" vertex="1" parent="368">
                    <mxGeometry y="64" width="320" height="26" as="geometry"/>
                </mxCell>
                <mxCell id="372" value="&lt;b&gt;ClairvoyancePower&lt;br&gt;&lt;/b&gt;" style="swimlane;fontStyle=0;align=center;verticalAlign=top;childLayout=stackLayout;horizontal=1;startSize=30;horizontalStack=0;resizeParent=1;resizeParentMax=0;resizeLast=0;collapsible=0;marginBottom=0;html=1;strokeColor=default;" vertex="1" parent="1">
                    <mxGeometry x="1260" y="-620" width="320" height="90" as="geometry"/>
                </mxCell>
                <mxCell id="373" value="" style="line;strokeWidth=1;fillColor=none;align=left;verticalAlign=middle;spacingTop=-1;spacingLeft=3;spacingRight=3;rotatable=0;labelPosition=right;points=[];portConstraint=eastwest;strokeColor=default;" vertex="1" parent="372">
                    <mxGeometry y="30" width="320" height="8" as="geometry"/>
                </mxCell>
                <mxCell id="374" value="+ usePower(game: Game, player: Player, data: Json): void" style="text;strokeColor=none;fillColor=none;align=left;verticalAlign=top;spacingLeft=4;spacingRight=4;overflow=hidden;rotatable=0;points=[[0,0.5],[1,0.5]];portConstraint=eastwest;" vertex="1" parent="372">
                    <mxGeometry y="38" width="320" height="26" as="geometry"/>
                </mxCell>
                <mxCell id="375" value="+ applyPower(game: Game, player: Player): void" style="text;strokeColor=none;fillColor=none;align=left;verticalAlign=top;spacingLeft=4;spacingRight=4;overflow=hidden;rotatable=0;points=[[0,0.5],[1,0.5]];portConstraint=eastwest;" vertex="1" parent="372">
                    <mxGeometry y="64" width="320" height="26" as="geometry"/>
                </mxCell>
                <mxCell id="376" style="edgeStyle=none;html=1;exitX=0;exitY=0.5;exitDx=0;exitDy=0;strokeWidth=1;fontFamily=Helvetica;fontSize=12;fontColor=#F0F0F0;startArrow=none;startFill=0;endArrow=none;endFill=0;" edge="1" parent="1" source="375">
                    <mxGeometry relative="1" as="geometry">
                        <mxPoint x="1240" y="-740" as="targetPoint"/>
                        <Array as="points"/>
                    </mxGeometry>
                </mxCell>
                <mxCell id="377" style="edgeStyle=none;html=1;exitX=0;exitY=0.5;exitDx=0;exitDy=0;strokeWidth=1;fontFamily=Helvetica;fontSize=12;fontColor=#F0F0F0;startArrow=none;startFill=0;endArrow=none;endFill=0;" edge="1" parent="1" source="370">
                    <mxGeometry relative="1" as="geometry">
                        <mxPoint x="770" y="-520" as="targetPoint"/>
                        <Array as="points">
                            <mxPoint x="1200" y="-800"/>
                            <mxPoint x="790" y="-790"/>
                        </Array>
                    </mxGeometry>
                </mxCell>
                <mxCell id="380" style="edgeStyle=none;html=1;exitX=1;exitY=0.5;exitDx=0;exitDy=0;strokeWidth=1;fontFamily=Helvetica;fontSize=12;fontColor=#F0F0F0;startArrow=none;startFill=0;endArrow=none;endFill=0;" edge="1" parent="1" source="356">
                    <mxGeometry relative="1" as="geometry">
                        <mxPoint x="1260" y="-569.2727272727275" as="targetPoint"/>
                    </mxGeometry>
                </mxCell>
                <mxCell id="381" style="edgeStyle=none;html=1;exitX=1;exitY=0.5;exitDx=0;exitDy=0;entryX=0;entryY=0.5;entryDx=0;entryDy=0;strokeWidth=1;fontFamily=Helvetica;fontSize=12;fontColor=#F0F0F0;startArrow=none;startFill=0;endArrow=none;endFill=0;" edge="1" parent="1" source="366" target="370">
                    <mxGeometry relative="1" as="geometry"/>
                </mxCell>
                <mxCell id="383" style="edgeStyle=none;html=1;strokeWidth=1;fontFamily=Helvetica;fontSize=12;fontColor=#F0F0F0;startArrow=none;startFill=0;endArrow=none;endFill=0;" edge="1" parent="1" source="384">
                    <mxGeometry relative="1" as="geometry">
                        <mxPoint x="1210" y="-710" as="targetPoint"/>
                        <mxPoint x="950" y="-310" as="sourcePoint"/>
                        <Array as="points">
                            <mxPoint x="950" y="-380"/>
                            <mxPoint x="1210" y="-380"/>
                        </Array>
                    </mxGeometry>
                </mxCell>
                <mxCell id="385" value="" style="edgeStyle=none;html=1;strokeWidth=1;fontFamily=Helvetica;fontSize=12;fontColor=#F0F0F0;startArrow=none;startFill=0;endArrow=none;endFill=0;" edge="1" parent="1" target="384">
                    <mxGeometry relative="1" as="geometry">
                        <mxPoint x="1210" y="-710" as="targetPoint"/>
                        <mxPoint x="950" y="-310" as="sourcePoint"/>
                        <Array as="points"/>
                    </mxGeometry>
                </mxCell>
                <mxCell id="384" value="" style="triangle;whiteSpace=wrap;html=1;fontFamily=Helvetica;fontSize=12;fontColor=#FFFFFF;fillColor=#FFFFFF;gradientColor=none;rotation=90;" vertex="1" parent="1">
                    <mxGeometry x="940" y="-340" width="27.5" height="41.25" as="geometry"/>
                </mxCell>
                <mxCell id="387" style="edgeStyle=none;html=1;exitX=0.5;exitY=1;exitDx=0;exitDy=0;entryX=1;entryY=0.5;entryDx=0;entryDy=0;strokeWidth=1;fontFamily=Helvetica;fontSize=12;fontColor=#F0F0F0;startArrow=none;startFill=0;endArrow=none;endFill=0;" edge="1" parent="1" source="294" target="294">
                    <mxGeometry relative="1" as="geometry"/>
                </mxCell>
                <mxCell id="391" value="" style="triangle;whiteSpace=wrap;html=1;fontFamily=Helvetica;fontSize=12;fontColor=#FFFFFF;fillColor=#FFFFFF;gradientColor=none;rotation=-185;" vertex="1" parent="1">
                    <mxGeometry x="-310" y="-268.48" width="15" height="13.48" as="geometry"/>
                </mxCell>
                <mxCell id="400" value="" style="triangle;whiteSpace=wrap;html=1;fontFamily=Helvetica;fontSize=12;fontColor=#FFFFFF;fillColor=#FFFFFF;gradientColor=none;rotation=-185;" vertex="1" parent="1">
                    <mxGeometry x="-395" y="-626.74" width="15" height="13.48" as="geometry"/>
                </mxCell>
            </root>
        </mxGraphModel>
    </diagram>
</mxfile>